<?xml version="1.0" encoding="utf-8"?>
<!-- Generator: Adobe Illustrator 24.0.3, SVG Export Plug-In . SVG Version: 6.00 Build 0)  -->
<svg version="1.1" id="Layer_1" xmlns="http://www.w3.org/2000/svg" xmlns:xlink="http://www.w3.org/1999/xlink" x="0px" y="0px"
	 viewBox="0 0 96.73 41.97" style="enable-background:new 0 0 96.73 41.97;" xml:space="preserve">
<style type="text/css">
	.st0{fill:#00263E;}
	.st1{fill:#B1B1B1;}
	.st2{fill:#7A303F;}
</style>
<g>
	<path class="st0" d="M36.73,0L23.57,36.07H13.16L0,0h9.77l8.72,25.32L27.21,0H36.73z"/>
	<g>
		<path class="st1" d="M17.32,38.85l-1.14,3.12h-0.9l-1.14-3.12H15l0.75,2.19l0.75-2.19H17.32z"/>
		<path class="st1" d="M20.8,40.41c0,0.5-0.14,0.89-0.43,1.18c-0.28,0.29-0.68,0.44-1.18,0.44c-0.5,0-0.89-0.15-1.18-0.44
			c-0.28-0.29-0.43-0.69-0.43-1.18c0-0.5,0.14-0.9,0.43-1.19s0.68-0.44,1.18-0.44c0.5,0,0.89,0.15,1.18,0.44
			C20.66,39.52,20.8,39.91,20.8,40.41z M19.74,41.2c0.08-0.09,0.14-0.21,0.17-0.34c0.04-0.13,0.06-0.28,0.06-0.46
			c0-0.19-0.02-0.35-0.06-0.48c-0.04-0.13-0.1-0.24-0.17-0.32c-0.07-0.08-0.15-0.14-0.25-0.18s-0.19-0.06-0.29-0.06
			c-0.1,0-0.2,0.02-0.29,0.05c-0.09,0.04-0.17,0.1-0.25,0.18c-0.07,0.08-0.13,0.19-0.17,0.32c-0.04,0.14-0.07,0.3-0.07,0.48
			c0,0.19,0.02,0.34,0.06,0.47s0.1,0.24,0.17,0.32c0.07,0.08,0.15,0.14,0.24,0.18c0.09,0.04,0.19,0.06,0.3,0.06s0.2-0.02,0.3-0.06
			C19.59,41.35,19.67,41.29,19.74,41.2z"/>
		<path class="st1" d="M23.67,41.97h-2.25v-3.12h0.8v2.51h1.44V41.97z"/>
		<path class="st1" d="M26.4,41.97h-2.25v-3.12h0.8v2.51h1.44V41.97z"/>
		<path class="st1" d="M29.14,41.97h-2.25v-3.12h2.25v0.6h-1.45v0.54h1.35v0.6h-1.35v0.77h1.45V41.97z"/>
		<path class="st1" d="M32.55,38.85l-1.15,1.91v1.21h-0.8V40.8l-1.17-1.95h0.92l0.67,1.2l0.65-1.2H32.55z"/>
		<path class="st1" d="M35.64,41.02c0,0.15-0.03,0.29-0.09,0.4c-0.06,0.12-0.14,0.22-0.25,0.3c-0.12,0.09-0.26,0.16-0.41,0.2
			c-0.15,0.04-0.33,0.06-0.56,0.06h-1.36v-3.12h1.21c0.25,0,0.44,0.01,0.55,0.03c0.12,0.02,0.23,0.05,0.35,0.11
			c0.12,0.06,0.21,0.14,0.26,0.24c0.06,0.1,0.09,0.22,0.09,0.35c0,0.15-0.04,0.28-0.12,0.4s-0.19,0.2-0.34,0.27v0.02
			c0.2,0.04,0.37,0.12,0.48,0.25C35.58,40.64,35.64,40.81,35.64,41.02z M34.61,39.73c0-0.05-0.01-0.1-0.04-0.15
			c-0.03-0.05-0.07-0.09-0.14-0.12c-0.06-0.02-0.13-0.03-0.22-0.04c-0.09,0-0.21,0-0.37,0h-0.08v0.66h0.13c0.13,0,0.24,0,0.32-0.01
			c0.09,0,0.16-0.02,0.21-0.04c0.07-0.03,0.12-0.07,0.14-0.12S34.61,39.8,34.61,39.73z M34.8,41c0-0.1-0.02-0.18-0.06-0.23
			c-0.04-0.05-0.1-0.09-0.2-0.12c-0.06-0.02-0.15-0.03-0.26-0.03c-0.11,0-0.22,0-0.34,0h-0.18v0.78h0.06c0.23,0,0.39,0,0.48,0
			c0.1,0,0.19-0.02,0.27-0.05c0.08-0.03,0.14-0.08,0.17-0.14C34.79,41.14,34.8,41.08,34.8,41z"/>
		<path class="st1" d="M39.12,41.97h-0.83l-0.22-0.63h-1.15l-0.22,0.63h-0.81l1.15-3.12h0.93L39.12,41.97z M37.88,40.77l-0.38-1.12
			l-0.38,1.12H37.88z"/>
		<path class="st1" d="M41.81,41.97h-2.25v-3.12h0.8v2.51h1.44V41.97z"/>
		<path class="st1" d="M44.54,41.97H42.3v-3.12h0.8v2.51h1.44V41.97z"/>
		<path class="st1" d="M48.74,41.97h-2.25v-3.12h0.8v2.51h1.44V41.97z"/>
		<path class="st1" d="M51.48,41.97h-2.25v-3.12h2.25v0.6h-1.45v0.54h1.35v0.6h-1.35v0.77h1.45V41.97z"/>
		<path class="st1" d="M55.03,41.97H54.2l-0.22-0.63h-1.15l-0.22,0.63h-0.81l1.15-3.12h0.93L55.03,41.97z M53.79,40.77l-0.38-1.12
			l-0.38,1.12H53.79z"/>
		<path class="st1" d="M58.24,41.79c-0.14,0.05-0.32,0.11-0.55,0.16c-0.23,0.05-0.46,0.08-0.69,0.08c-0.53,0-0.95-0.14-1.25-0.43
			c-0.3-0.29-0.45-0.69-0.45-1.19c0-0.48,0.15-0.87,0.45-1.17c0.3-0.3,0.73-0.44,1.27-0.44c0.21,0,0.4,0.02,0.59,0.06
			c0.19,0.04,0.39,0.11,0.62,0.22v0.73h-0.09c-0.04-0.03-0.1-0.07-0.17-0.12s-0.15-0.1-0.22-0.14c-0.08-0.04-0.18-0.08-0.28-0.12
			c-0.11-0.03-0.22-0.05-0.34-0.05c-0.14,0-0.27,0.02-0.39,0.06s-0.22,0.11-0.31,0.19c-0.09,0.08-0.16,0.19-0.21,0.32
			c-0.05,0.13-0.08,0.28-0.08,0.45c0,0.34,0.09,0.61,0.27,0.79c0.18,0.18,0.45,0.27,0.81,0.27c0.03,0,0.06,0,0.1,0s0.07,0,0.1-0.01
			v-0.61H56.8v-0.59h1.44V41.79z"/>
		<path class="st1" d="M61.69,40.84c0,0.39-0.12,0.68-0.35,0.89s-0.58,0.31-1.04,0.31c-0.46,0-0.8-0.1-1.04-0.31
			c-0.23-0.21-0.35-0.5-0.35-0.88v-1.99h0.81v1.94c0,0.22,0.05,0.38,0.14,0.48c0.09,0.11,0.24,0.16,0.44,0.16
			c0.2,0,0.35-0.05,0.44-0.15s0.14-0.27,0.14-0.49v-1.94h0.81V40.84z"/>
		<path class="st1" d="M64.7,41.97h-2.25v-3.12h2.25v0.6h-1.45v0.54h1.35v0.6h-1.35v0.77h1.45V41.97z"/>
		<path class="st1" d="M69.87,40.41c0,0.5-0.14,0.89-0.43,1.18c-0.28,0.29-0.68,0.44-1.18,0.44c-0.5,0-0.89-0.15-1.18-0.44
			c-0.28-0.29-0.43-0.69-0.43-1.18c0-0.5,0.14-0.9,0.43-1.19c0.28-0.29,0.68-0.44,1.18-0.44c0.5,0,0.89,0.15,1.18,0.44
			S69.87,39.91,69.87,40.41z M68.8,41.2c0.08-0.09,0.14-0.21,0.17-0.34c0.04-0.13,0.06-0.28,0.06-0.46c0-0.19-0.02-0.35-0.06-0.48
			c-0.04-0.13-0.1-0.24-0.17-0.32c-0.07-0.08-0.15-0.14-0.25-0.18s-0.19-0.06-0.29-0.06c-0.1,0-0.2,0.02-0.29,0.05
			c-0.09,0.04-0.17,0.1-0.25,0.18c-0.07,0.08-0.13,0.19-0.17,0.32c-0.04,0.14-0.07,0.3-0.07,0.48c0,0.19,0.02,0.34,0.06,0.47
			c0.04,0.13,0.1,0.24,0.17,0.32c0.07,0.08,0.15,0.14,0.24,0.18c0.09,0.04,0.19,0.06,0.3,0.06s0.2-0.02,0.3-0.06
			C68.65,41.35,68.73,41.29,68.8,41.2z"/>
		<path class="st1" d="M72.71,39.46h-1.43v0.58h1.33v0.6h-1.33v1.33h-0.8v-3.12h2.23V39.46z"/>
		<path class="st1" d="M77.61,41.97h-0.83l-0.22-0.63h-1.15l-0.22,0.63h-0.81l1.15-3.12h0.93L77.61,41.97z M76.37,40.77l-0.38-1.12
			l-0.38,1.12H76.37z"/>
		<path class="st1" d="M81.33,41.97h-0.8v-2.09l-0.58,1.35H79.4l-0.58-1.35v2.09h-0.76v-3.12H79l0.7,1.56l0.7-1.56h0.93V41.97z"/>
		<path class="st1" d="M84.38,41.97h-2.25v-3.12h2.25v0.6h-1.45v0.54h1.35v0.6h-1.35v0.77h1.45V41.97z"/>
		<path class="st1" d="M88.06,41.97h-0.98l-0.85-1.14h-0.37v1.14h-0.8v-3.12h1.35c0.18,0,0.34,0.01,0.48,0.03
			c0.13,0.02,0.26,0.07,0.37,0.14c0.12,0.07,0.21,0.16,0.28,0.27c0.07,0.11,0.1,0.25,0.1,0.42c0,0.23-0.05,0.42-0.16,0.56
			c-0.11,0.15-0.26,0.27-0.46,0.36L88.06,41.97z M86.8,39.81c0-0.08-0.02-0.15-0.05-0.2c-0.03-0.06-0.09-0.1-0.17-0.13
			c-0.05-0.02-0.12-0.04-0.19-0.04c-0.07,0-0.16-0.01-0.25-0.01h-0.29v0.84h0.25c0.13,0,0.24-0.01,0.32-0.02
			c0.09-0.01,0.16-0.04,0.22-0.09c0.06-0.04,0.1-0.09,0.12-0.14S86.8,39.9,86.8,39.81z"/>
		<path class="st1" d="M90.09,41.97h-1.83v-0.55h0.51v-2.01h-0.51v-0.55h1.83v0.55h-0.51v2.01h0.51V41.97z"/>
		<path class="st1" d="M92.16,42.03c-0.23,0-0.45-0.03-0.64-0.1c-0.2-0.07-0.36-0.17-0.51-0.31s-0.25-0.3-0.33-0.51
			c-0.08-0.2-0.12-0.44-0.12-0.7c0-0.25,0.04-0.47,0.11-0.67c0.07-0.2,0.18-0.37,0.32-0.52c0.14-0.14,0.3-0.24,0.5-0.32
			c0.2-0.08,0.42-0.11,0.66-0.11c0.13,0,0.25,0.01,0.35,0.02c0.11,0.01,0.2,0.03,0.29,0.06c0.09,0.03,0.18,0.06,0.25,0.09
			c0.08,0.03,0.14,0.06,0.2,0.09v0.76h-0.09c-0.04-0.03-0.09-0.07-0.15-0.12c-0.06-0.05-0.13-0.09-0.2-0.14
			c-0.08-0.04-0.16-0.08-0.25-0.11c-0.09-0.03-0.18-0.05-0.29-0.05c-0.11,0-0.22,0.02-0.32,0.05c-0.1,0.04-0.2,0.09-0.28,0.18
			c-0.08,0.08-0.15,0.18-0.2,0.32c-0.05,0.13-0.08,0.29-0.08,0.48c0,0.2,0.03,0.36,0.08,0.49c0.06,0.13,0.12,0.23,0.21,0.31
			c0.09,0.08,0.18,0.13,0.28,0.16c0.1,0.03,0.21,0.05,0.31,0.05c0.1,0,0.19-0.01,0.29-0.04c0.1-0.03,0.18-0.07,0.26-0.12
			c0.07-0.04,0.13-0.08,0.19-0.13c0.06-0.05,0.11-0.09,0.14-0.12h0.08v0.75c-0.08,0.03-0.15,0.07-0.22,0.1
			c-0.07,0.03-0.15,0.06-0.22,0.08c-0.1,0.03-0.2,0.05-0.29,0.07C92.44,42.02,92.31,42.03,92.16,42.03z"/>
		<path class="st1" d="M96.73,41.97H95.9l-0.22-0.63h-1.15l-0.22,0.63H93.5l1.15-3.12h0.93L96.73,41.97z M95.49,40.77l-0.38-1.12
			l-0.38,1.12H95.49z"/>
	</g>
	<g>
		<polygon class="st2" points="76.06,32.66 70.81,36.07 81.3,36.07 		"/>
		<polygon class="st2" points="84.77,36.07 94.55,36.07 89.76,22.94 82.23,28.4 		"/>
		<polygon class="st2" points="76.06,10.75 79.87,21.52 89.24,21.53 81.39,0 70.98,0 63.13,21.52 72.24,21.52 		"/>
		<polygon class="st2" points="62.56,23.09 57.82,36.07 67.34,36.07 69.88,28.4 		"/>
	</g>
	<g>
		<polygon class="st0" points="43.76,29.1 43.76,0 39.36,0 34.46,13.45 34.46,36.07 55.18,36.07 57.73,29.1 		"/>
	</g>
</g>
</svg>
