<?xml version="1.0" encoding="utf-8"?>
<!-- Generator: Adobe Illustrator 24.0.3, SVG Export Plug-In . SVG Version: 6.00 Build 0)  -->
<svg version="1.1" id="Layer_1" xmlns="http://www.w3.org/2000/svg" xmlns:xlink="http://www.w3.org/1999/xlink" x="0px" y="0px"
	 viewBox="0 0 720 720" style="enable-background:new 0 0 720 720;" xml:space="preserve">
<style type="text/css">
	.st0{fill:#00263E;}
	.st1{fill:#7A303F;}
</style>
<g>
	<path class="st0" d="M277.34,214.44l-98,268.73h-77.6l-98-268.73h72.81l64.95,188.65l64.95-188.65H277.34z"/>
	<g>
		<polygon class="st1" points="570.3,457.71 531.22,483.17 609.37,483.17 		"/>
		<polygon class="st1" points="635.24,483.17 708.06,483.17 672.38,385.33 616.32,426.02 		"/>
		<polygon class="st1" points="570.3,294.52 598.74,374.76 668.53,374.79 610.06,214.44 532.45,214.44 473.98,374.78 541.85,374.76 
					"/>
		<polygon class="st1" points="469.73,386.43 434.45,483.17 505.35,483.17 524.27,426.02 		"/>
	</g>
	<g>
		<polygon class="st0" points="329.74,431.19 329.74,214.44 296.97,214.44 260.43,314.63 260.43,483.17 414.82,483.17 
			433.78,431.19 		"/>
	</g>
</g>
</svg>
